<?xml version="1.0" encoding="UTF-8"?>
<!DOCTYPE svg PUBLIC "-//W3C//DTD SVG 1.1//EN" "http://www.w3.org/Graphics/SVG/1.1/DTD/svg11.dtd">
<!-- Creator: CorelDRAW 2020 (64-Bit) -->
<svg xmlns="http://www.w3.org/2000/svg" xml:space="preserve" width="7.03107in" height="7.03096in" version="1.1" style="shape-rendering:geometricPrecision; text-rendering:geometricPrecision; image-rendering:optimizeQuality; fill-rule:evenodd; clip-rule:evenodd"
viewBox="0 0 301.5 301.49"
 xmlns:xlink="http://www.w3.org/1999/xlink"
 xmlns:xodm="http://www.corel.com/coreldraw/odm/2003">
 <defs>
  <style type="text/css">
   <![CDATA[
    .fil0 {fill:#2FA9E8}
    .fil1 {fill:white}
   ]]>
  </style>
 </defs>
 <g id="Layer_x0020_1">
  <metadata id="CorelCorpID_0Corel-Layer"/>
  <g id="_2963847764832">
   <path class="fil0" d="M211.85 87.57c7.52,-1.74 13.52,3.95 12.75,11.55 -0.72,7.14 -2.21,14.78 -3.29,21.9l-13.23 88c-1.21,8.3 -2.12,13.56 -9.2,16.06 -7.46,2.64 -13.16,-3.26 -17.53,-6.07 -14.26,-9.15 -30.76,-21.53 -45.05,-31.04 -7.42,-4.94 -6.13,-10.23 -0.41,-15.72 4.66,-4.48 15.3,-14.1 19.18,-18.63 4.3,-5.01 14.35,-12.75 19.17,-18.64 1.91,-2.34 4.1,-4.15 6.34,-6.26 5.49,-5.18 0.94,-6.58 -1.09,-6.09l-46.24 30.02c-31.03,20.07 -26.32,21.93 -53.24,13.07 -3.51,-1.15 -16.54,-4.9 -18.86,-6.33 -2.9,-1.78 -2.97,-6.03 -0.56,-8.15 2.29,-2.01 98.83,-41.9 115.41,-48.92 6.09,-2.58 31.67,-13.79 35.85,-14.76zm-211.85 63.66c0,82.28 67.43,150.26 149.78,150.26 84.66,0 151.72,-67.63 151.72,-149.78 0,-84.22 -67.28,-151.71 -149.78,-151.71 -84.98,0 -151.72,67.4 -151.72,151.23z"/>
   <path class="fil1" d="M211.85 87.57c-4.18,0.97 -29.76,12.18 -35.85,14.76 -16.58,7.02 -113.12,46.91 -115.41,48.92 -2.42,2.11 -2.34,6.36 0.56,8.15 2.32,1.43 15.36,5.17 18.86,6.33 26.92,8.86 22.21,7 53.24,-13.07l46.24 -30.02c2.03,-0.49 6.58,0.91 1.09,6.09 -2.24,2.12 -4.43,3.92 -6.34,6.26 -4.82,5.9 -14.86,13.63 -19.17,18.64 -3.89,4.53 -14.52,14.15 -19.18,18.63 -5.72,5.5 -7.01,10.79 0.41,15.72 14.29,9.51 30.79,21.89 45.05,31.04 4.38,2.81 10.08,8.71 17.53,6.07 7.09,-2.51 8,-7.76 9.2,-16.06l13.23 -88c1.08,-7.12 2.57,-14.77 3.29,-21.9 0.77,-7.6 -5.23,-13.29 -12.75,-11.55z"/>
  </g>
 </g>
</svg>
