<?xml version="1.0" encoding="UTF-8"?>
<!DOCTYPE svg PUBLIC "-//W3C//DTD SVG 1.1//EN" "http://www.w3.org/Graphics/SVG/1.1/DTD/svg11.dtd">
<!-- Creator: CorelDRAW 2020 (64-Bit) -->
<svg xmlns="http://www.w3.org/2000/svg" xml:space="preserve" width="8.26771in" height="8.26771in" version="1.1" style="shape-rendering:geometricPrecision; text-rendering:geometricPrecision; image-rendering:optimizeQuality; fill-rule:evenodd; clip-rule:evenodd"
viewBox="0 0 455.74 455.74"
 xmlns:xlink="http://www.w3.org/1999/xlink"
 xmlns:xodm="http://www.corel.com/coreldraw/odm/2003">
 <defs>
  <style type="text/css">
   <![CDATA[
    .fil0 {fill:fuchsia;fill-rule:nonzero}
   ]]>
  </style>
 </defs>
 <g id="Layer_x0020_1">
  <metadata id="CorelCorpID_0Corel-Layer"/>
  <g id="_2965578630832">
   <path class="fil0" d="M227.87 0c-125.83,0 -227.87,102.04 -227.87,227.87 0,125.83 102.04,227.87 227.87,227.87 125.83,0 227.87,-102.04 227.87,-227.87 0,-125.83 -102.04,-227.87 -227.87,-227.87zm-134.94 264.92l0 0c-0.83,-0.85 -1.58,-1.79 -2.23,-2.78 -0.3,-0.47 -0.57,-0.96 -0.82,-1.46 -0.27,-0.55 -0.64,-1.05 -0.87,-1.64 -0.24,-0.62 -0.44,-1.26 -0.59,-1.91 0,-0.5 -0.36,-1 -0.46,-1.5 -0.24,-1.18 -0.36,-2.39 -0.36,-3.6l0 -87.96c0,-10.07 8.16,-18.23 18.23,-18.23 10.07,0 18.23,8.16 18.23,18.23l0 43.89 115.12 -115.03c3.44,-3.61 8.22,-5.66 13.2,-5.66 10.07,0 18.23,8.16 18.23,18.23 0,5 -2.06,9.79 -5.68,13.23l-115.07 115.12 43.89 0c10.07,-0 18.23,8.16 18.23,18.23 0,10.07 -8.16,18.23 -18.23,18.23l-87.91 0c-1.19,-0.01 -2.39,-0.13 -3.55,-0.37l-1.55 -0.46 -1.87 -0.59c-0.59,-0.27 -1.14,-0.59 -1.69,-0.91 -0.5,-0.23 -0.99,-0.49 -1.46,-0.78 -1.01,-0.65 -1.94,-1.42 -2.78,-2.28l-0 -0zm275.22 26.75c0,10.07 -8.16,18.23 -18.23,18.23 -10.07,0 -18.23,-8.16 -18.23,-18.23l0 -43.98 -115.12 115.12c-3.46,4.24 -8.65,6.7 -14.12,6.7 -10.07,0 -18.23,-8.16 -18.23,-18.23 0,-5.43 2.42,-10.58 6.6,-14.04l115.07 -115.35 -43.89 0c-10.07,0 -18.23,-8.16 -18.23,-18.23 0,-10.07 8.16,-18.23 18.23,-18.23l88.14 0c1.11,0.02 2.23,0.12 3.33,0.32l1.6 0.5c0.59,0 1.23,0.32 1.82,0.55 0.58,0.26 1.15,0.56 1.69,0.91 0.51,0.21 1,0.47 1.46,0.77 0.98,0.65 1.9,1.4 2.73,2.23l0 0c0.84,0.84 1.59,1.78 2.23,2.78 0.28,0.44 0.55,0.9 0.77,1.37 0.34,0.56 0.64,1.14 0.91,1.73 0.24,0.61 0.44,1.23 0.59,1.87 0,0.5 0.32,1 0.46,1.55 0.23,1.17 0.36,2.36 0.37,3.56l0.05 88.09z"/>
  </g>
 </g>
</svg>
